<svg width="22" height="22" viewBox="0 0 22 22" fill="none" xmlns="http://www.w3.org/2000/svg">
<path fill-rule="evenodd" clip-rule="evenodd" d="M9 0.25H8.96644C7.59472 0.249995 6.51929 0.249992 5.65494 0.320612C4.77479 0.392522 4.04769 0.541379 3.38955 0.876713C2.30762 1.42798 1.42798 2.30762 0.876713 3.38955C0.541379 4.04769 0.392522 4.77479 0.320612 5.65494C0.249992 6.51929 0.249995 7.59472 0.25 8.96644V9V13V13.0336C0.249995 14.4053 0.249992 15.4807 0.320612 16.3451C0.392522 17.2252 0.541379 17.9523 0.876713 18.6104C1.42798 19.6924 2.30762 20.572 3.38955 21.1233C4.04769 21.4586 4.77479 21.6075 5.65494 21.6794C6.51927 21.75 7.59469 21.75 8.96637 21.75H8.96642H9H15L15.0808 21.75C15.9328 21.7501 16.4518 21.7501 16.8995 21.6792C19.3599 21.2895 21.2895 19.3599 21.6792 16.8995C21.7501 16.4518 21.7501 15.9328 21.75 15.0808L21.75 15V14C21.75 13.5858 21.4142 13.25 21 13.25C20.5858 13.25 20.25 13.5858 20.25 14V15C20.25 15.9577 20.2477 16.3492 20.1977 16.6648C19.9096 18.4834 18.4834 19.9096 16.6648 20.1977C16.3492 20.2477 15.9577 20.25 15 20.25H9C7.58749 20.25 6.57322 20.2494 5.77708 20.1844C4.9897 20.12 4.48197 19.9964 4.07054 19.7868C3.27085 19.3793 2.62068 18.7291 2.21322 17.9295C2.00359 17.518 1.87996 17.0103 1.81563 16.2229C1.75058 15.4268 1.75 14.4125 1.75 13V9C1.75 7.58749 1.75058 6.57322 1.81563 5.77708C1.87996 4.9897 2.00359 4.48197 2.21322 4.07054C2.62068 3.27085 3.27085 2.62068 4.07054 2.21322C4.48197 2.00359 4.9897 1.87996 5.77708 1.81563C6.57322 1.75058 7.58749 1.75 9 1.75H14C14.4142 1.75 14.75 1.41421 14.75 1C14.75 0.585787 14.4142 0.25 14 0.25H9ZM20.5303 5.53033C20.8232 5.23744 20.8232 4.76256 20.5303 4.46967C20.2374 4.17678 19.7626 4.17678 19.4697 4.46967L10.9658 12.9735L7.49388 9.93557C7.18215 9.66281 6.70833 9.69439 6.43557 10.0061C6.16281 10.3178 6.19439 10.7917 6.50612 11.0644L10.5061 14.5644C10.8033 14.8244 11.2511 14.8095 11.5303 14.5303L20.5303 5.53033Z" fill="white"/>
</svg>
