<svg width="17" height="22" viewBox="0 0 17 22" fill="none" xmlns="http://www.w3.org/2000/svg">
<path d="M5.99994 12L5.46961 12.5303C5.68411 12.7448 6.0067 12.809 6.28696 12.6929C6.56721 12.5768 6.74994 12.3033 6.74994 12H5.99994ZM9.99994 12H9.24994C9.24994 12.4142 9.58573 12.75 9.99994 12.75V12ZM4.58573 10.5858L4.0554 11.1161H4.0554L4.58573 10.5858ZM1.28522 12.8276L0.602444 13.138H0.602444L1.28522 12.8276ZM3.93413 18.6552L4.6169 18.3449L3.93413 18.6552ZM15.1516 18.9846L14.5004 18.6124L15.1516 18.9846ZM15.4729 18.4223L16.1241 18.7944L16.1241 18.7944L15.4729 18.4223ZM1.24994 7C1.24994 7.41421 1.58573 7.75 1.99994 7.75C2.41416 7.75 2.74994 7.41421 2.74994 7H1.24994ZM13.2499 7C13.2499 7.41421 13.5857 7.75 13.9999 7.75C14.4142 7.75 14.7499 7.41421 14.7499 7H13.2499ZM6.74994 12V6H5.24994V12H6.74994ZM9.24994 6V12H10.7499V6H9.24994ZM9.99994 12.75H11.9999V11.25H9.99994V12.75ZM11.6787 20.25H7.5756V21.75H11.6787V20.25ZM3.10595 10.75H3.17152V9.25H3.10595V10.75ZM4.0554 11.1161L5.46961 12.5303L6.53027 11.4697L5.11606 10.0555L4.0554 11.1161ZM0.602444 13.138L3.25136 18.9656L4.6169 18.3449L1.96799 12.5173L0.602444 13.138ZM15.8028 19.3567L16.1241 18.7944L14.8217 18.0502L14.5004 18.6124L15.8028 19.3567ZM16.7499 16.4377V16H15.2499V16.4377H16.7499ZM16.1241 18.7944C16.5342 18.0767 16.7499 17.2644 16.7499 16.4377H15.2499C15.2499 17.0033 15.1023 17.5591 14.8217 18.0502L16.1241 18.7944ZM3.17152 10.75C3.50304 10.75 3.82098 10.8817 4.0554 11.1161L5.11606 10.0555C4.60034 9.53973 3.90086 9.25 3.17152 9.25V10.75ZM3.10595 9.25C1.10591 9.25 -0.22518 11.3172 0.602444 13.138L1.96799 12.5173C1.5918 11.6896 2.19684 10.75 3.10595 10.75V9.25ZM11.6787 21.75C13.3832 21.75 14.9571 20.8366 15.8028 19.3567L14.5004 18.6124C13.9218 19.6251 12.8449 20.25 11.6787 20.25V21.75ZM11.9999 12.75C13.7949 12.75 15.2499 14.2051 15.2499 16H16.7499C16.7499 13.3766 14.6233 11.25 11.9999 11.25V12.75ZM7.99994 4.75C8.6903 4.75 9.24994 5.30964 9.24994 6H10.7499C10.7499 4.48122 9.51873 3.25 7.99994 3.25V4.75ZM7.5756 20.25C6.30113 20.25 5.14428 19.5051 4.6169 18.3449L3.25136 18.9656C4.02214 20.6613 5.71291 21.75 7.5756 21.75V20.25ZM6.74994 6C6.74994 5.30964 7.30959 4.75 7.99994 4.75V3.25C6.48116 3.25 5.24994 4.48122 5.24994 6H6.74994ZM2.74994 7C2.74994 4.10051 5.10045 1.75 7.99994 1.75V0.25C4.27202 0.25 1.24994 3.27208 1.24994 7H2.74994ZM7.99994 1.75C10.8994 1.75 13.2499 4.10051 13.2499 7H14.7499C14.7499 3.27208 11.7279 0.25 7.99994 0.25V1.75Z" fill="white"/>
</svg>
